# xmcd
#
# Track frame offsets:
#	150
#	10195
#	20460
#	32082
#	44670
#	57660
#	66797
#	81687
#	97995
#	114540
#	129990
#	143935
#	158697
#	173450
#	191340
#	209285
#	222267
#	234145
#	248675
#	262715
#
# Disc length: 3682 seconds
#
# Revision: 1
# Processed by: cddbd v1.5.2PL0 Copyright (c) Steve Scherf et al.
# Submitted via: EZCDAudioConverter 1.3.4.1
#
DISCID=0b0e6014
DTITLE=The Byrds - Sweetheart Of The Rodeo
DYEAR=1968
DGENRE=
TTITLE0=Sum Up Broke
TTITLE1=One Day Week
TTITLE2=Truck Drivin' Man
TTITLE3=Blue Eyes
TTITLE4=Luxury Liner
TTITLE5=Strong Boy
TTITLE6=Lazy Days [Alternate Version]
TTITLE7=Pretty Polly [Alternate Version]
TTITLE8=Hickory Wind [Alternate 'nashville' Version - Take 8]
TTITLE9=The Christian Life [Rehearsal Version Take 7 - Gram Parsons Vocal]
TTITLE10=The Christian Life [Rehearsal Version Take 8 - Gram Parsons Vocal]
TTITLE11=Life In Prison [Rehearsal Version Takes 1 and 2 - Gram Parsons Vocal]
TTITLE12=Life In Prison [Rehearsal Version Takes 3 and 4 - Gram Parsons Vocal]
TTITLE13=One Hundred Years From Now [Rehearsal Version Takes 12 and 13 - Gram Pa
TTITLE13=rsons Vocal]
TTITLE14=One Hundred Years From Now [Rehearsal Version Takes 14 and 15 - Gram Pa
TTITLE14=rsons Vocal]
TTITLE15=You're Still On My Mind [Rehearsal Version Take 13 - Gram Parsons Voc
TTITLE15=al]
TTITLE16=You're Still On My Mind [Rehearsal Version Take 48 - Gram Parsons Voc
TTITLE16=al]
TTITLE17=All I Have Are Memories [Alternate Instrumental Take 17]
TTITLE18=All I Have Are Memories [Alternate Instrumental Take 21]
TTITLE19=Blue Canadian Rockies [Rehearsal Version Take 14]
EXTD=
EXTT0=
EXTT1=
EXTT2=
EXTT3=
EXTT4=
EXTT5=
EXTT6=
EXTT7=
EXTT8=
EXTT9=
EXTT10=
EXTT11=
EXTT12=
EXTT13=
EXTT14=
EXTT15=
EXTT16=
EXTT17=
EXTT18=
EXTT19=
PLAYORDER=
